# xmcd
#
# Track frame offsets:
#	150
#	19386
#	40048
#	56177
#	73294
#	89676
#	107826
#	127062
#	147724
#	163853
#	180970
#	197352
#
# Disc length: 2873 seconds
#
# Revision: 0
# Processed by: cddbd v1.5.2PL0 Copyright (c) Steve Scherf et al.
# Submitted via: audiograbber 1.83.01
#
DISCID=b70b370c
DTITLE=Various Artist - KP2-5373
DYEAR=1900
DGENRE=Country
TTITLE0=Shania Twain - Man I Feel Like A Woman
TTITLE1=LeAnn Rimes - How Do I Live
TTITLE2=Faith Hill - This Kiss
TTITLE3=Dixie Chicks - You were Mine
TTITLE4=Lee Ann Womack - I will Think of a Reason Later
TTITLE5=Shania Twain - That Dont Impress Me Much
TTITLE6=Shania Twain - Man I Feel Like A Woman (Vocals)
TTITLE7=LeAnn Rimes - How Do I live (Vocals)
TTITLE8=Faith Hill - This Kiss (Vocals)
TTITLE9=Dixie Chicks - You Were Mine (Vocals)
TTITLE10=Lee Ann Womack - I will Think of a Reason Later (Vocals)
TTITLE11=Shania Twain - That Dont Impress Me Much (Vocals)
EXTD=
EXTT0=
EXTT1=
EXTT2=
EXTT3=
EXTT4=
EXTT5=
EXTT6=
EXTT7=
EXTT8=
EXTT9=
EXTT10=
EXTT11=
PLAYORDER=
